<svg width="28" height="28" viewBox="0 0 28 28" fill="none" xmlns="http://www.w3.org/2000/svg">
<path fill-rule="evenodd" clip-rule="evenodd" d="M21.7071 6.29289C22.0976 6.68342 22.0976 7.31658 21.7071 7.70711L17 12.4142L14.2929 9.70711C13.9024 9.31658 13.9024 8.68342 14.2929 8.29289C14.6834 7.90237 15.3166 7.90237 15.7071 8.29289L17 9.58579L20.2929 6.29289C20.6834 5.90237 21.3166 5.90237 21.7071 6.29289Z" fill="#00A052"/>
<path d="M6.02551 15.873C6.02551 15.2198 6.1871 14.6815 6.51028 14.2581C6.83346 13.8347 7.27145 13.5202 7.82425 13.3145C8.37706 13.1048 8.9979 13 9.68678 13C10.3969 13 11.0326 13.0827 11.594 13.248C12.1553 13.4133 12.5975 13.6734 12.9207 14.0282C13.2481 14.379 13.4118 14.8327 13.4118 15.3891C13.4118 15.8206 13.2843 16.1976 13.0291 16.5202C12.774 16.8387 12.3509 17.0927 11.7598 17.2823C12.0745 17.3629 12.3721 17.4899 12.6528 17.6633C12.9377 17.8327 13.1694 18.0585 13.348 18.3407C13.5266 18.619 13.6159 18.9577 13.6159 19.3569C13.6159 19.9456 13.4331 20.4375 13.0674 20.8327C12.7017 21.2238 12.2169 21.5161 11.6131 21.7097C11.0135 21.9032 10.3565 22 9.64213 22C8.46423 22 7.56274 21.7419 6.93764 21.2258C6.3168 20.7056 6.00425 19.9879 6 19.0726H8.06664C8.16019 19.5524 8.35155 19.8871 8.6407 20.0766C8.92986 20.2661 9.26792 20.3609 9.65489 20.3609C10.1737 20.3609 10.5776 20.2601 10.8668 20.0585C11.156 19.8569 11.3005 19.5968 11.3005 19.2782C11.3005 18.9758 11.1602 18.7298 10.8796 18.5403C10.6032 18.3468 10.2353 18.2419 9.77608 18.2258L8.87671 18.1835V16.5746L9.67402 16.5262C10.1205 16.502 10.4713 16.3992 10.7265 16.2177C10.9816 16.0323 11.1092 15.7863 11.1092 15.4798C11.1092 15.1855 10.9646 14.9597 10.6754 14.8024C10.3863 14.6452 10.0397 14.5665 9.63575 14.5665C9.21902 14.5665 8.86608 14.6613 8.57692 14.8508C8.29201 15.0363 8.1283 15.377 8.08577 15.873H6.02551Z" fill="white"/>
<path d="M18.3451 13C19.4847 13 20.3777 13.3931 21.0241 14.1794C21.6747 14.9657 22 16.0766 22 17.5121C22 18.9435 21.6789 20.0504 21.0368 20.8327C20.399 21.6109 19.4996 22 18.3387 22C17.1778 22 16.2742 21.6109 15.6279 20.8327C14.9815 20.0504 14.6583 18.9456 14.6583 17.5181C14.6583 16.0786 14.9858 14.9657 15.6406 14.1794C16.2955 13.3931 17.197 13 18.3451 13ZM18.3324 20.3427C18.8384 20.3427 19.1998 20.129 19.4167 19.7016C19.6336 19.2742 19.742 18.5484 19.742 17.5242C19.742 16.4718 19.6293 15.7218 19.4039 15.2742C19.1828 14.8226 18.8256 14.5968 18.3324 14.5968C17.8348 14.5968 17.4734 14.8226 17.248 15.2742C17.0226 15.7258 16.9099 16.4758 16.9099 17.5242C16.9099 18.5403 17.0205 19.2641 17.2416 19.6956C17.467 20.127 17.8306 20.3427 18.3324 20.3427Z" fill="white"/>
<path d="M9.75535 12H8.263V9.75535H6V8.25688H8.25688V6H9.75535V8.25688H12V9.74924H9.75535V12Z" fill="white"/>
</svg>
