<svg width="36" height="37" viewBox="0 0 36 37" fill="none" xmlns="http://www.w3.org/2000/svg">
<path fill-rule="evenodd" clip-rule="evenodd" d="M35.7044 0.962623C36.0985 1.3568 36.0985 1.99588 35.7044 2.39005L1.72306 36.3714C1.32889 36.7655 0.689805 36.7655 0.295631 36.3714C-0.0985435 35.9772 -0.0985435 35.3381 0.295631 34.9439L34.2769 0.962623C34.6711 0.568449 35.3102 0.568449 35.7044 0.962623Z" fill="#161618"/>
<path fill-rule="evenodd" clip-rule="evenodd" d="M5.66357 1.67634C5.66357 1.11889 6.11547 0.666992 6.67292 0.666992H34.9907C35.5481 0.666992 36 1.11889 36 1.67634V29.9941C36 30.5515 35.5481 31.0034 34.9907 31.0034C34.4332 31.0034 33.9813 30.5515 33.9813 29.9941V2.68568H6.67292C6.11547 2.68568 5.66357 2.23378 5.66357 1.67634Z" fill="#161618"/>
</svg>
