<svg width="36" height="37" viewBox="0 0 36 37" fill="none" xmlns="http://www.w3.org/2000/svg">
<path fill-rule="evenodd" clip-rule="evenodd" d="M35.7044 35.9387C35.3102 36.3329 34.6711 36.3329 34.2769 35.9387L0.295632 1.95743C-0.0985439 1.56326 -0.0985439 0.924178 0.295632 0.530004C0.689805 0.13583 1.32889 0.13583 1.72306 0.530004L35.7044 34.5113C36.0985 34.9055 36.0985 35.5446 35.7044 35.9387Z" fill="#F2F2F2"/>
<path fill-rule="evenodd" clip-rule="evenodd" d="M34.9907 5.89807C35.5481 5.89807 36 6.34997 36 6.90742L36 35.2252C36 35.7826 35.5481 36.2345 34.9907 36.2345L6.6729 36.2345C6.11545 36.2345 5.66355 35.7826 5.66355 35.2252C5.66355 34.6677 6.11545 34.2158 6.6729 34.2158L33.9813 34.2158L33.9813 6.90742C33.9813 6.34997 34.4332 5.89807 34.9907 5.89807Z" fill="#F2F2F2"/>
</svg>
