<svg width="80" height="71" viewBox="0 0 80 71" fill="none" xmlns="http://www.w3.org/2000/svg">
<path d="M14.2121 26.3207C15.1544 26.3207 16.0582 26.7089 16.7245 27.3998C17.3908 28.0907 17.7651 29.0278 17.7651 30.0049C23.3475 29.9964 28.7688 31.9438 33.1498 35.5312H40.8598C45.596 35.5312 49.849 37.6681 52.7767 41.0576H63.9545C67.3131 41.0566 70.6031 42.0428 73.443 43.9019C76.283 45.761 78.5565 48.4168 80 51.5612C71.5971 63.0597 57.9925 70.5312 42.6363 70.5312C32.7234 70.5312 24.3382 68.3097 17.552 64.4228C17.3034 65.1341 16.8493 65.7485 16.2516 66.1824C15.6539 66.6162 14.9417 66.8483 14.2121 66.847H3.55303C2.61071 66.847 1.70698 66.4589 1.04066 65.768C0.374336 65.077 0 64.1399 0 63.1628V30.0049C0 29.0278 0.374336 28.0907 1.04066 27.3998C1.70698 26.7089 2.61071 26.3207 3.55303 26.3207H14.2121ZM17.7687 37.3734L17.7651 55.8755L17.925 55.9934C24.3027 60.6355 32.6097 63.1628 42.6363 63.1628C53.3096 63.1628 63.2404 58.9039 70.4743 51.6312L70.9469 51.1413L70.5205 50.7728C68.8428 49.4103 66.8091 48.6017 64.6829 48.4518L63.9545 48.426H56.4541C56.7099 49.6123 56.8485 50.8428 56.8485 52.1102V55.7944H24.8712V48.426L48.9963 48.4223L48.8755 48.1349C48.1945 46.6596 47.1472 45.3987 45.8409 44.4819C44.5346 43.5651 43.0165 43.0253 41.4425 42.9181L40.8598 42.8997H30.4495C28.7984 41.1487 26.8263 39.7577 24.6492 38.8086C22.4721 37.8596 20.1339 37.3716 17.7722 37.3734H17.7687ZM10.6591 33.6891H7.10606V59.4786H10.6591V33.6891ZM60.4015 11.5839C63.2285 11.5839 65.9396 12.7484 67.9386 14.8211C69.9376 16.8939 71.0606 19.7052 71.0606 22.6365C71.0606 25.5679 69.9376 28.3791 67.9386 30.4519C65.9396 32.5247 63.2285 33.6891 60.4015 33.6891C57.5745 33.6891 54.8633 32.5247 52.8644 30.4519C50.8654 28.3791 49.7424 25.5679 49.7424 22.6365C49.7424 19.7052 50.8654 16.8939 52.8644 14.8211C54.8633 12.7484 57.5745 11.5839 60.4015 11.5839ZM60.4015 18.9523C59.4592 18.9523 58.5554 19.3405 57.8891 20.0314C57.2228 20.7223 56.8485 21.6594 56.8485 22.6365C56.8485 23.6136 57.2228 24.5507 57.8891 25.2416C58.5554 25.9326 59.4592 26.3207 60.4015 26.3207C61.3438 26.3207 62.2475 25.9326 62.9139 25.2416C63.5802 24.5507 63.9545 23.6136 63.9545 22.6365C63.9545 21.6594 63.5802 20.7223 62.9139 20.0314C62.2475 19.3405 61.3438 18.9523 60.4015 18.9523ZM35.5303 0.53125C38.3573 0.53125 41.0684 1.69572 43.0674 3.76849C45.0664 5.84126 46.1894 8.65254 46.1894 11.5839C46.1894 14.5152 45.0664 17.3265 43.0674 19.3993C41.0684 21.472 38.3573 22.6365 35.5303 22.6365C32.7033 22.6365 29.9921 21.472 27.9932 19.3993C25.9942 17.3265 24.8712 14.5152 24.8712 11.5839C24.8712 8.65254 25.9942 5.84126 27.9932 3.76849C29.9921 1.69572 32.7033 0.53125 35.5303 0.53125ZM35.5303 7.89967C34.588 7.89967 33.6842 8.28783 33.0179 8.97875C32.3516 9.66968 31.9773 10.6068 31.9773 11.5839C31.9773 12.561 32.3516 13.4981 33.0179 14.189C33.6842 14.8799 34.588 15.2681 35.5303 15.2681C36.4726 15.2681 37.3763 14.8799 38.0427 14.189C38.709 13.4981 39.0833 12.561 39.0833 11.5839C39.0833 10.6068 38.709 9.66968 38.0427 8.97875C37.3763 8.28783 36.4726 7.89967 35.5303 7.89967Z" fill="#00A052"/>
</svg>
