<svg width="28" height="28" viewBox="0 0 28 28" fill="none" xmlns="http://www.w3.org/2000/svg">
<mask id="path-1-inside-1" fill="white">
<path fill-rule="evenodd" clip-rule="evenodd" d="M8.56073 13.561L14.4912 15.5001L13.9184 16.8997C13.964 17.1519 13.9427 17.4258 13.8433 17.7015L12.4199 21.6482C12.0995 22.5367 11.0889 23.1074 10.1626 22.923C9.51889 22.7949 9.08531 22.3357 8.98823 21.7694C8.52301 22.2237 7.83865 22.4601 7.19502 22.332C6.26873 22.1476 5.77758 21.2779 6.09799 20.3894L7.1782 17.3942C7.18061 17.3875 7.18305 17.3809 7.18553 17.3742L8.56073 13.561Z"/>
</mask>
<path d="M14.4912 15.5001L15.4167 15.8788L15.8239 14.8837L14.8019 14.5496L14.4912 15.5001ZM8.56073 13.561L8.8715 12.6106L7.94922 12.309L7.62004 13.2218L8.56073 13.561ZM13.9184 16.8997L12.9929 16.521L12.8824 16.7908L12.9344 17.0777L13.9184 16.8997ZM13.8433 17.7015L14.784 18.0407L14.784 18.0407L13.8433 17.7015ZM12.4199 21.6482L11.4793 21.309L11.4793 21.309L12.4199 21.6482ZM8.98823 21.7694L9.97386 21.6004L9.65211 19.7233L8.28957 21.0539L8.98823 21.7694ZM7.19502 22.332L7.39027 21.3512L7.19502 22.332ZM6.09799 20.3894L5.1573 20.0502L6.09799 20.3894ZM7.1782 17.3942L6.23751 17.0549L7.1782 17.3942ZM7.18553 17.3742L8.12215 17.7248L8.12623 17.7135L7.18553 17.3742ZM14.8019 14.5496L8.8715 12.6106L8.24996 14.5115L14.1804 16.4505L14.8019 14.5496ZM14.8439 17.2784L15.4167 15.8788L13.5657 15.1213L12.9929 16.521L14.8439 17.2784ZM14.784 18.0407C14.9404 17.607 14.9808 17.1548 14.9024 16.7217L12.9344 17.0777C12.9472 17.1489 12.9451 17.2446 12.9026 17.3622L14.784 18.0407ZM13.3606 21.9875L14.784 18.0407L12.9026 17.3622L11.4793 21.309L13.3606 21.9875ZM9.96736 23.9038C11.3788 24.1848 12.8724 23.3413 13.3606 21.9875L11.4793 21.309C11.3267 21.732 10.7989 22.0301 10.3579 21.9423L9.96736 23.9038ZM8.00261 21.9383C8.17286 22.9316 8.93651 23.6986 9.96736 23.9038L10.3579 21.9423C10.1013 21.8912 9.99776 21.7399 9.97386 21.6004L8.00261 21.9383ZM8.28957 21.0539C8.03443 21.3031 7.67646 21.4082 7.39027 21.3512L6.99977 23.3128C8.00084 23.512 9.01158 23.1443 9.68689 22.4848L8.28957 21.0539ZM7.39027 21.3512C7.06387 21.2863 6.92578 21.0417 7.03869 20.7287L5.1573 20.0502C4.62938 21.514 5.4736 23.0089 6.99977 23.3128L7.39027 21.3512ZM7.03869 20.7287L8.1189 17.7334L6.23751 17.0549L5.1573 20.0502L7.03869 20.7287ZM8.1189 17.7334C8.11994 17.7305 8.121 17.7276 8.12209 17.7248L6.24898 17.0237C6.2451 17.0341 6.24127 17.0445 6.23751 17.0549L8.1189 17.7334ZM7.62004 13.2218L6.24484 17.035L8.12623 17.7135L9.50143 13.9003L7.62004 13.2218Z" fill="white" mask="url(#path-1-inside-1)"/>
<mask id="path-3-inside-2" fill="white">
<path fill-rule="evenodd" clip-rule="evenodd" d="M19.4593 13.5494L14.0191 15.5L14.1185 15.8092C13.87 16.1749 13.8025 16.6551 13.9778 17.141L15.6172 21.687C15.9377 22.5757 16.9486 23.1465 17.875 22.9621C18.5188 22.8339 18.9525 22.3747 19.0496 21.8083C19.515 22.2627 20.1994 22.4992 20.8432 22.371C21.7697 22.1866 22.2609 21.3167 21.9404 20.4281L20.86 17.4322C20.8561 17.4214 20.8521 17.4106 20.848 17.3999L19.4593 13.5494Z"/>
</mask>
<path d="M14.0191 15.5L13.0671 15.806L12.7712 14.8851L13.6816 14.5587L14.0191 15.5ZM19.4593 13.5494L19.1218 12.6081L20.0614 12.2712L20.4 13.2101L19.4593 13.5494ZM14.1185 15.8092L15.0705 15.5033L15.2198 15.9678L14.9456 16.3713L14.1185 15.8092ZM13.9778 17.141L14.9184 16.8017L13.9778 17.141ZM15.6172 21.687L14.6766 22.0263L15.6172 21.687ZM17.875 22.9621L18.0703 23.9428L17.875 22.9621ZM19.0496 21.8083L18.064 21.6393L18.3859 19.7624L19.7483 21.0928L19.0496 21.8083ZM21.9404 20.4281L20.9997 20.7673L21.9404 20.4281ZM20.86 17.4322L21.8007 17.093L20.86 17.4322ZM20.848 17.3999L19.9141 17.7574L19.9106 17.7483L19.9073 17.7392L20.848 17.3999ZM13.6816 14.5587L19.1218 12.6081L19.7969 14.4907L14.3566 16.4413L13.6816 14.5587ZM13.1665 16.1152L13.0671 15.806L14.9712 15.194L15.0705 15.5033L13.1665 16.1152ZM13.0371 17.4802C12.7588 16.7088 12.8537 15.8912 13.2914 15.2471L14.9456 16.3713C14.8862 16.4586 14.8462 16.6015 14.9184 16.8017L13.0371 17.4802ZM14.6766 22.0263L13.0371 17.4802L14.9184 16.8017L16.5579 21.3478L14.6766 22.0263ZM18.0703 23.9428C16.6586 24.2239 15.1649 23.3803 14.6766 22.0263L16.5579 21.3478C16.7106 21.771 17.2385 22.0692 17.6798 21.9813L18.0703 23.9428ZM20.0352 21.9773C19.8649 22.9707 19.1012 23.7376 18.0703 23.9428L17.6798 21.9813C17.9365 21.9302 18.0401 21.7788 18.064 21.6393L20.0352 21.9773ZM19.7483 21.0928C20.0035 21.3421 20.3616 21.4473 20.6479 21.3903L21.0384 23.3518C20.0373 23.5511 19.0264 23.1833 18.351 22.5238L19.7483 21.0928ZM20.6479 21.3903C20.9745 21.3253 21.1127 21.0806 20.9997 20.7673L22.8811 20.0888C23.4091 21.5528 22.5648 23.0479 21.0384 23.3518L20.6479 21.3903ZM20.9997 20.7673L19.9193 17.7715L21.8007 17.093L22.8811 20.0888L20.9997 20.7673ZM19.9193 17.7715C19.9176 17.7668 19.9159 17.7621 19.9141 17.7574L21.7819 17.0424C21.7883 17.0592 21.7946 17.076 21.8007 17.093L19.9193 17.7715ZM20.4 13.2101L21.7887 17.0607L19.9073 17.7392L18.5186 13.8886L20.4 13.2101Z" fill="white" mask="url(#path-3-inside-2)"/>
<mask id="path-5-outside-3" maskUnits="userSpaceOnUse" x="6.93799" y="5" width="15" height="14" fill="black">
<rect fill="white" x="6.93799" y="5" width="15" height="14"/>
<path fill-rule="evenodd" clip-rule="evenodd" d="M11.7236 6.4381C11.3091 6.6042 11.0098 6.9326 10.8692 7.32043C10.4535 7.29716 10.0299 7.4428 9.7123 7.75736C9.41053 8.05625 9.26273 8.44988 9.2689 8.84158C8.89953 8.98291 8.58553 9.26753 8.41822 9.65849C8.24329 10.0672 8.26421 10.5093 8.43905 10.881C8.13156 11.1557 7.93799 11.5552 7.93799 12C7.93799 12.4242 8.11411 12.8073 8.39722 13.0802C8.23823 13.4381 8.21998 13.858 8.38035 14.2506C8.54896 14.6633 8.8807 14.9617 9.27106 15.1016C9.24898 15.5118 9.39612 15.9293 9.71248 16.2426C10.0154 16.5426 10.4147 16.689 10.8116 16.6817C10.9536 17.0486 11.2391 17.3594 11.6318 17.5243C12.0446 17.6976 12.4921 17.6744 12.869 17.4974C13.1463 17.8059 13.5484 18 13.9959 18C14.4228 18 14.8084 17.8234 15.0837 17.5392C15.4467 17.7004 15.8717 17.7208 16.2682 17.562C16.6826 17.3958 16.982 17.0674 17.1226 16.6796C17.5383 16.7029 17.9619 16.5572 18.2795 16.2426C18.5813 15.9437 18.7291 15.5501 18.7229 15.1583C19.0922 15.017 19.4061 14.7324 19.5734 14.3415C19.7483 13.9328 19.7274 13.4908 19.5527 13.1191C19.8603 12.8444 20.0539 12.4448 20.0539 12C20.0539 11.5758 19.8778 11.1927 19.5947 10.9199C19.7537 10.5619 19.772 10.142 19.6116 9.74946C19.4431 9.33682 19.1114 9.0384 18.7211 8.89845C18.7432 8.48822 18.5961 8.07071 18.2797 7.75735C17.9767 7.45725 17.5773 7.31089 17.1802 7.31827C17.0382 6.95142 16.7527 6.64061 16.36 6.47576C15.9472 6.30246 15.4998 6.32561 15.1228 6.50266C14.8456 6.19408 14.4434 6 13.9959 6C13.569 6 13.1833 6.17664 12.908 6.46083C12.5451 6.2996 12.1201 6.27921 11.7236 6.4381ZM13.996 16C16.2265 16 18.0346 14.2091 18.0346 12C18.0346 9.79086 16.2265 8 13.996 8C11.7655 8 9.95735 9.79086 9.95735 12C9.95735 14.2091 11.7655 16 13.996 16Z"/>
</mask>
<path fill-rule="evenodd" clip-rule="evenodd" d="M11.7236 6.4381C11.3091 6.6042 11.0098 6.9326 10.8692 7.32043C10.4535 7.29716 10.0299 7.4428 9.7123 7.75736C9.41053 8.05625 9.26273 8.44988 9.2689 8.84158C8.89953 8.98291 8.58553 9.26753 8.41822 9.65849C8.24329 10.0672 8.26421 10.5093 8.43905 10.881C8.13156 11.1557 7.93799 11.5552 7.93799 12C7.93799 12.4242 8.11411 12.8073 8.39722 13.0802C8.23823 13.4381 8.21998 13.858 8.38035 14.2506C8.54896 14.6633 8.8807 14.9617 9.27106 15.1016C9.24898 15.5118 9.39612 15.9293 9.71248 16.2426C10.0154 16.5426 10.4147 16.689 10.8116 16.6817C10.9536 17.0486 11.2391 17.3594 11.6318 17.5243C12.0446 17.6976 12.4921 17.6744 12.869 17.4974C13.1463 17.8059 13.5484 18 13.9959 18C14.4228 18 14.8084 17.8234 15.0837 17.5392C15.4467 17.7004 15.8717 17.7208 16.2682 17.562C16.6826 17.3958 16.982 17.0674 17.1226 16.6796C17.5383 16.7029 17.9619 16.5572 18.2795 16.2426C18.5813 15.9437 18.7291 15.5501 18.7229 15.1583C19.0922 15.017 19.4061 14.7324 19.5734 14.3415C19.7483 13.9328 19.7274 13.4908 19.5527 13.1191C19.8603 12.8444 20.0539 12.4448 20.0539 12C20.0539 11.5758 19.8778 11.1927 19.5947 10.9199C19.7537 10.5619 19.772 10.142 19.6116 9.74946C19.4431 9.33682 19.1114 9.0384 18.7211 8.89845C18.7432 8.48822 18.5961 8.07071 18.2797 7.75735C17.9767 7.45725 17.5773 7.31089 17.1802 7.31827C17.0382 6.95142 16.7527 6.64061 16.36 6.47576C15.9472 6.30246 15.4998 6.32561 15.1228 6.50266C14.8456 6.19408 14.4434 6 13.9959 6C13.569 6 13.1833 6.17664 12.908 6.46083C12.5451 6.2996 12.1201 6.27921 11.7236 6.4381ZM13.996 16C16.2265 16 18.0346 14.2091 18.0346 12C18.0346 9.79086 16.2265 8 13.996 8C11.7655 8 9.95735 9.79086 9.95735 12C9.95735 14.2091 11.7655 16 13.996 16Z" fill="#00A052"/>
<path d="M10.8692 7.32043L10.8133 8.31887L11.5558 8.36043L11.8093 7.66128L10.8692 7.32043ZM11.7236 6.4381L12.0956 7.36633L12.0956 7.36633L11.7236 6.4381ZM9.7123 7.75736L10.416 8.46786L10.416 8.46786L9.7123 7.75736ZM9.2689 8.84158L9.62626 9.77555L10.2798 9.52549L10.2688 8.82582L9.2689 8.84158ZM8.41822 9.65849L9.33757 10.0519L9.33757 10.0519L8.41822 9.65849ZM8.43905 10.881L9.10526 11.6268L9.6613 11.13L9.34394 10.4554L8.43905 10.881ZM8.39722 13.0802L9.31112 13.4861L9.5954 12.8461L9.09115 12.3601L8.39722 13.0802ZM8.38035 14.2506L9.30607 13.8724L9.30607 13.8724L8.38035 14.2506ZM9.27106 15.1016L10.2696 15.1554L10.3096 14.4116L9.60846 14.1603L9.27106 15.1016ZM9.71248 16.2426L10.4162 15.5321L10.4162 15.5321L9.71248 16.2426ZM10.8116 16.6817L11.7442 16.3208L11.492 15.6691L10.7933 15.6819L10.8116 16.6817ZM11.6318 17.5243L12.0189 16.6022L12.0189 16.6022L11.6318 17.5243ZM12.869 17.4974L13.6129 16.829L13.1163 16.2764L12.4439 16.5922L12.869 17.4974ZM15.0837 17.5392L15.4897 16.6253L14.8515 16.3418L14.3655 16.8434L15.0837 17.5392ZM16.2682 17.562L16.6402 18.4902L16.6402 18.4902L16.2682 17.562ZM17.1226 16.6796L17.1785 15.6811L16.436 15.6396L16.1825 16.3387L17.1226 16.6796ZM18.2795 16.2426L18.9832 16.9531L18.9832 16.9531L18.2795 16.2426ZM18.7229 15.1583L18.3655 14.2244L17.712 14.4745L17.7231 15.1742L18.7229 15.1583ZM19.5734 14.3415L20.4928 14.7349L20.4928 14.7349L19.5734 14.3415ZM19.5527 13.1191L18.8866 12.3733L18.3305 12.8699L18.6477 13.5447L19.5527 13.1191ZM19.5947 10.9199L18.6808 10.5139L18.3965 11.1539L18.9008 11.6399L19.5947 10.9199ZM19.6116 9.74946L20.5374 9.37126L20.5374 9.37126L19.6116 9.74946ZM18.7211 8.89845L17.7226 8.84464L17.6825 9.58837L18.3836 9.83977L18.7211 8.89845ZM18.2797 7.75735L18.9834 7.04685L18.9834 7.04685L18.2797 7.75735ZM17.1802 7.31827L16.2476 7.67916L16.4999 8.33109L17.1988 8.3181L17.1802 7.31827ZM16.36 6.47576L16.7471 5.55371L16.7471 5.55371L16.36 6.47576ZM15.1228 6.50266L14.379 7.171L14.8755 7.72364L15.5479 7.40779L15.1228 6.50266ZM12.908 6.46083L12.5021 7.37472L13.1403 7.65824L13.6263 7.15662L12.908 6.46083ZM11.8093 7.66128C11.8566 7.53093 11.9555 7.42247 12.0956 7.36633L11.3516 5.50986C10.6628 5.78592 10.163 6.33426 9.92908 6.97957L11.8093 7.66128ZM10.416 8.46786C10.5231 8.36175 10.6666 8.31065 10.8133 8.31887L10.9251 6.32199C10.2403 6.28366 9.53667 6.52385 9.0086 7.04687L10.416 8.46786ZM10.2688 8.82582C10.2667 8.69668 10.3146 8.56833 10.416 8.46786L9.0086 7.04687C8.50649 7.54417 8.25872 8.20309 8.26903 8.85734L10.2688 8.82582ZM9.33757 10.0519C9.39367 9.92083 9.49817 9.82456 9.62626 9.77555L8.91155 7.90761C8.30089 8.14126 7.77739 8.61423 7.49887 9.26505L9.33757 10.0519ZM9.34394 10.4554C9.28601 10.3322 9.27924 10.1882 9.33757 10.0519L7.49887 9.26505C7.20734 9.94627 7.24242 10.6864 7.53416 11.3066L9.34394 10.4554ZM8.93799 12C8.93799 11.8518 9.00116 11.7198 9.10526 11.6268L7.77284 10.1352C7.26196 10.5916 6.93799 11.2586 6.93799 12H8.93799ZM9.09115 12.3601C8.99551 12.268 8.93799 12.1416 8.93799 12H6.93799C6.93799 12.7069 7.2327 13.3467 7.70329 13.8002L9.09115 12.3601ZM9.30607 13.8724C9.2525 13.7412 9.25852 13.6046 9.31112 13.4861L7.48332 12.6742C7.21794 13.2717 7.18746 13.9748 7.45462 14.6288L9.30607 13.8724ZM9.60846 14.1603C9.4729 14.1117 9.3625 14.0105 9.30607 13.8724L7.45462 14.6288C7.73541 15.316 8.2885 15.8118 8.93366 16.043L9.60846 14.1603ZM10.4162 15.5321C10.3101 15.427 10.2623 15.2909 10.2696 15.1554L8.2725 15.0479C8.23564 15.7328 8.48219 16.4316 9.00878 16.9531L10.4162 15.5321ZM10.7933 15.6819C10.6535 15.6844 10.5185 15.6335 10.4162 15.5321L9.00878 16.9531C9.51226 17.4518 10.1758 17.6935 10.8299 17.6815L10.7933 15.6819ZM12.0189 16.6022C11.8859 16.5464 11.7918 16.4438 11.7442 16.3208L9.87898 17.0426C10.1153 17.6534 10.5922 18.1724 11.2447 18.4463L12.0189 16.6022ZM12.4439 16.5922C12.3112 16.6545 12.1589 16.661 12.0189 16.6022L11.2447 18.4463C11.9303 18.7341 12.6729 18.6943 13.2941 18.4025L12.4439 16.5922ZM13.9959 17C13.844 17 13.7085 16.9354 13.6129 16.829L12.1252 18.1657C12.5841 18.6764 13.2529 19 13.9959 19V17ZM14.3655 16.8434C14.2708 16.9412 14.1411 17 13.9959 17V19C14.7045 19 15.3461 18.7056 15.802 18.235L14.3655 16.8434ZM15.8962 16.6337C15.7614 16.6877 15.6171 16.6819 15.4897 16.6253L14.6778 18.4531C15.2763 18.719 15.982 18.754 16.6402 18.4902L15.8962 16.6337ZM16.1825 16.3387C16.1352 16.4691 16.0363 16.5776 15.8962 16.6337L16.6402 18.4902C17.329 18.2141 17.8288 17.6657 18.0627 17.0204L16.1825 16.3387ZM17.5758 15.5321C17.4687 15.6383 17.3252 15.6894 17.1785 15.6811L17.0667 17.678C17.7515 17.7164 18.4551 17.4762 18.9832 16.9531L17.5758 15.5321ZM17.7231 15.1742C17.7251 15.3033 17.6773 15.4317 17.5758 15.5321L18.9832 16.9531C19.4854 16.4558 19.7332 15.7968 19.7228 15.1425L17.7231 15.1742ZM18.6541 13.948C18.598 14.0791 18.4935 14.1754 18.3655 14.2244L19.0804 16.0922C19.6909 15.8586 20.2143 15.3856 20.4928 14.7349L18.6541 13.948ZM18.6477 13.5447C18.7056 13.6678 18.7124 13.8118 18.6541 13.948L20.4928 14.7349C20.7843 14.0538 20.7492 13.3138 20.4576 12.6936L18.6477 13.5447ZM19.0539 12C19.0539 12.1482 18.9907 12.2803 18.8866 12.3733L20.2188 13.865C20.7298 13.4086 21.0539 12.7415 21.0539 12H19.0539ZM18.9008 11.6399C18.9964 11.732 19.0539 11.8584 19.0539 12H21.0539C21.0539 11.2932 20.7592 10.6534 20.2887 10.1999L18.9008 11.6399ZM18.6859 10.1277C18.7395 10.2588 18.7335 10.3955 18.6808 10.5139L20.5086 11.3259C20.774 10.7284 20.8045 10.0252 20.5374 9.37126L18.6859 10.1277ZM18.3836 9.83977C18.5191 9.88836 18.6295 9.98955 18.6859 10.1277L20.5374 9.37126C20.2566 8.6841 19.7037 8.18843 19.0587 7.95714L18.3836 9.83977ZM17.576 8.46784C17.6821 8.57296 17.7299 8.70911 17.7226 8.84464L19.7197 8.95227C19.7566 8.26732 19.5101 7.56845 18.9834 7.04685L17.576 8.46784ZM17.1988 8.3181C17.3386 8.3155 17.4737 8.36647 17.576 8.46784L18.9834 7.04685C18.4798 6.54803 17.816 6.30628 17.1616 6.31844L17.1988 8.3181ZM15.9729 7.3978C16.1059 7.45362 16.2 7.55623 16.2476 7.67916L18.1128 6.95739C17.8765 6.34661 17.3996 5.82761 16.7471 5.55371L15.9729 7.3978ZM15.5479 7.40779C15.6806 7.34549 15.8329 7.33901 15.9729 7.3978L16.7471 5.55371C16.0615 5.26591 15.3189 5.30573 14.6977 5.59753L15.5479 7.40779ZM13.9959 7C14.1478 7 14.2833 7.06459 14.379 7.171L15.8667 5.83432C15.4078 5.32357 14.739 5 13.9959 5V7ZM13.6263 7.15662C13.721 7.05884 13.8507 7 13.9959 7V5C13.2873 5 12.6457 5.29445 12.1898 5.76504L13.6263 7.15662ZM12.0956 7.36633C12.2303 7.31234 12.3747 7.31814 12.5021 7.37472L13.314 5.54694C12.7154 5.28105 12.0098 5.24609 11.3516 5.50986L12.0956 7.36633ZM17.0346 12C17.0346 13.6478 15.6833 15 13.996 15V17C16.7697 17 19.0346 14.7705 19.0346 12H17.0346ZM13.996 9C15.6833 9 17.0346 10.3522 17.0346 12H19.0346C19.0346 9.22954 16.7697 7 13.996 7V9ZM10.9573 12C10.9573 10.3522 12.3087 9 13.996 9V7C11.2223 7 8.95735 9.22954 8.95735 12H10.9573ZM13.996 15C12.3087 15 10.9573 13.6478 10.9573 12H8.95735C8.95735 14.7705 11.2223 17 13.996 17V15Z" fill="white" mask="url(#path-5-outside-3)"/>
</svg>
