<svg width="69" height="70" viewBox="0 0 69 70" fill="none" xmlns="http://www.w3.org/2000/svg">
<path fill-rule="evenodd" clip-rule="evenodd" d="M34.5008 7.31696C39.9819 7.31711 45.3399 8.94252 49.8972 11.9877C54.4548 15.0329 58.007 19.3613 60.1047 24.4254C62.2023 29.4896 62.7511 35.062 61.6818 40.438C60.6124 45.8141 57.9729 50.7523 54.097 54.6282C50.221 58.5041 45.2828 61.1436 39.9068 62.213C34.5308 63.2824 28.9583 62.7335 23.8942 60.6359C18.8301 58.5383 14.5017 54.9861 11.4564 50.4285C8.41128 45.8711 6.78588 40.5131 6.78573 35.032C6.79439 27.6842 9.71714 20.6398 14.9128 15.4441C20.1085 10.2484 27.1529 7.32563 34.5008 7.31696ZM34.5 0.53125C27.6766 0.53125 21.0063 2.55464 15.3328 6.34555C9.65934 10.1365 5.23739 15.5246 2.62617 21.8287C0.0149481 28.1327 -0.668267 35.0695 0.662923 41.7619C1.99411 48.4542 5.27992 54.6015 10.1048 59.4264C14.9297 64.2513 21.0771 67.5371 27.7694 68.8683C34.4617 70.1995 41.3985 69.5163 47.7026 66.9051C54.0066 64.2939 59.3948 59.8719 63.1857 54.1984C66.9766 48.5249 69 41.8547 69 35.0312C69 25.8813 65.3652 17.1061 58.8952 10.6361C52.4252 4.16606 43.65 0.53125 34.5 0.53125ZM34.5 14.4741L13.9429 35.0312L34.5 55.5883L55.0571 35.0312L34.5 14.4741ZM53.6428 35.0313L53.6429 35.0312L34.5 15.8883L34.5 15.8884L53.6428 35.0313Z" fill="#00A052"/>
</svg>
