<svg width="104" height="41" viewBox="0 0 104 41" fill="none" xmlns="http://www.w3.org/2000/svg">
<path d="M29.6861 24.2189C32.2806 24.2189 34.3839 21.9615 34.3839 19.1768C34.3839 16.3922 32.2806 14.1348 29.6861 14.1348C27.0915 14.1348 24.9882 16.3922 24.9882 19.1768C24.9882 21.9615 27.0915 24.2189 29.6861 24.2189Z" fill="#0098A7"/>
<path d="M10.7565 12.6593C14.1241 12.6593 16.8542 9.83095 16.8542 6.34196C16.8542 2.85298 14.1241 0.0245972 10.7565 0.0245972C7.38878 0.0245972 4.65874 2.85298 4.65874 6.34196C4.65874 9.83095 7.38878 12.6593 10.7565 12.6593Z" fill="#00A052"/>
<path d="M36.9526 27.8174C36.8046 27.4966 36.39 27.4082 36.0886 27.3675C35.6851 27.313 35.2775 27.3483 34.8725 27.3606C34.2606 27.3792 33.6484 27.3878 33.0364 27.3759C31.8081 27.3519 30.5744 27.2467 29.3745 26.9576C28.315 26.7023 27.2971 26.2954 26.4016 25.6353C25.5362 24.9974 24.8257 24.1585 24.3175 23.1816C23.7362 22.0643 23.3821 20.7915 23.3436 19.5145C23.3033 18.1751 23.6208 16.8713 24.1254 15.651C24.5469 14.6313 25.0721 13.6478 25.6268 12.7029C25.7055 12.5688 25.7908 12.4392 25.8699 12.3054C26.0047 12.0774 26.1626 11.7097 25.8854 11.5198C25.6288 11.344 25.2718 11.8623 25.2718 11.8623C25.2718 11.8623 22.4931 15.7204 21.2162 17.7226C19.5969 20.2611 18.197 22.845 17.0552 25.4024L16.967 25.601C14.8571 30.3979 14.5232 34.6969 14.6727 37.6716C16.4229 35.7909 19.035 33.6699 22.7332 32.2077C25.0682 31.2845 27.4789 30.5749 29.9196 30.0425C31.0469 29.7966 32.1864 29.5697 33.3297 29.4235C33.9119 29.3491 34.4946 29.2891 35.0715 29.1736C35.4119 29.1054 35.7518 29.0226 36.0788 28.9003C36.3364 28.8039 36.6075 28.6822 36.8059 28.4773C36.9722 28.3055 37.0607 28.0516 36.9526 27.8174ZM21.9841 32.5037C22.026 32.4872 22.0697 32.47 22.114 32.4523C22.0707 32.4695 22.0273 32.4867 21.9841 32.5037ZM21.5602 32.6714C21.6003 32.6556 21.6411 32.6394 21.6849 32.6221C21.6426 32.6388 21.6008 32.6554 21.5602 32.6714ZM21.8268 32.566C21.8631 32.5516 21.9024 32.536 21.941 32.5207C21.9027 32.5359 21.8646 32.551 21.8268 32.566ZM23.4502 31.9241C23.468 31.9171 23.4793 31.9125 23.4862 31.9099C23.4792 31.9126 23.467 31.9174 23.4502 31.9241Z" fill="#0098A7"/>
<path d="M14.5435 24.6232C15.7745 21.8592 17.233 19.208 18.8528 16.678C19.6011 15.5096 20.3739 14.3464 21.212 13.2471C21.6388 12.6872 22.0773 12.1389 22.4681 11.5496C22.6987 11.2018 22.9175 10.8423 23.0953 10.461C23.2353 10.1607 23.3671 9.82773 23.3744 9.48784C23.3805 9.20294 23.2586 8.91647 22.9884 8.81437C22.6184 8.67456 22.2056 8.95587 21.9237 9.17987C21.5462 9.47993 21.2344 9.85786 20.9071 10.2145C20.4126 10.7533 19.9101 11.2842 19.392 11.7979C18.3521 12.8287 17.2454 13.7967 16.0249 14.5831C14.9474 15.2774 13.7879 15.8104 12.5352 16.0283C11.3246 16.2389 10.088 16.1502 8.91342 15.7738C7.57013 15.3434 6.29596 14.5896 5.28106 13.5623C4.21655 12.4848 3.47713 11.1307 2.95738 9.68591C2.52305 8.47869 2.20276 7.21279 1.93678 5.95384C1.85476 5.5658 1.79204 4.68593 1.24568 4.73229C1.07373 4.74694 0.912282 4.85588 0.810352 4.99949C0.757437 5.07408 0.719024 5.16153 0.707621 5.25446C0.696318 5.31641 0.664609 5.38995 0.666709 5.45285C-2.51632 27.3323 6.41279 33.7689 12.3476 40.0246C11.8766 37.0956 11.5677 31.3043 14.5435 24.6232C11.5677 31.3043 16.2949 20.6908 14.5435 24.6232Z" fill="#00A052"/>
<path d="M53.8377 23.2632V24.9414H47V15.0939H53.7129V16.7722H48.914V19.1439H53.061V20.6973H48.914V23.2632H53.8377Z" fill="#0D0B1F"/>
<path d="M63.3604 24.9414V18.4781L60.8361 23.2909H59.7682L57.2439 18.4781V24.9414H55.3299V15.0939H57.3826L60.2952 20.6973L63.2356 15.0939H65.2744V24.9414H63.3604Z" fill="#0D0B1F"/>
<path d="M67.3304 24.9414V15.0939H73.9462V16.7722H69.2444V19.3103H73.1556V20.8637H69.2444V24.9414H67.3304Z" fill="#0D0B1F"/>
<path d="M79.3481 25.0107C78.6269 25.0107 77.9704 24.872 77.3786 24.5946C76.7961 24.3172 76.2921 23.9428 75.8668 23.4712C75.4507 22.9904 75.1271 22.4541 74.8959 21.8623C74.6648 21.2613 74.5492 20.6464 74.5492 20.0177C74.5492 19.3612 74.6694 18.737 74.9098 18.1453C75.1502 17.5442 75.4877 17.0126 75.9223 16.5503C76.3569 16.0787 76.8654 15.7088 77.4479 15.4407C78.0397 15.1633 78.687 15.0246 79.3897 15.0246C80.1017 15.0246 80.7489 15.1679 81.3314 15.4546C81.9232 15.7412 82.4271 16.1249 82.8432 16.6057C83.2686 17.0865 83.5922 17.6275 83.8141 18.2285C84.0453 18.8203 84.1608 19.4259 84.1608 20.0454C84.1608 20.6927 84.0406 21.3168 83.8002 21.9178C83.5598 22.5096 83.2223 23.0412 82.7877 23.5128C82.3624 23.9751 81.8539 24.3404 81.2621 24.6085C80.6796 24.8767 80.0416 25.0107 79.3481 25.0107ZM76.4909 20.0177C76.4909 20.5909 76.6019 21.1272 76.8238 21.6265C77.055 22.1258 77.3832 22.5327 77.8086 22.8471C78.2431 23.1614 78.7609 23.3186 79.3619 23.3186C79.9815 23.3186 80.5039 23.1568 80.9292 22.8332C81.3546 22.5096 81.6782 22.0935 81.9001 21.5849C82.122 21.0764 82.233 20.554 82.233 20.0177C82.233 19.4444 82.1174 18.9081 81.8862 18.4088C81.6551 17.9095 81.3222 17.5073 80.8876 17.2021C80.4623 16.8878 79.9537 16.7306 79.3619 16.7306C78.7424 16.7306 78.22 16.8924 77.7947 17.216C77.3693 17.5396 77.0457 17.9557 76.8238 18.4643C76.6019 18.9636 76.4909 19.4814 76.4909 20.0177Z" fill="#0D0B1F"/>
<path d="M85.0327 19.9483C85.0327 19.3473 85.139 18.7555 85.3517 18.173C85.5736 17.5905 85.8926 17.0634 86.3087 16.5919C86.7248 16.1203 87.2333 15.7458 87.8343 15.4684C88.4354 15.1818 89.1196 15.0385 89.887 15.0385C90.7839 15.0385 91.5653 15.2373 92.231 15.6349C92.8968 16.0325 93.3914 16.5503 93.7151 17.1883L92.2449 18.2007C92.0784 17.8309 91.8612 17.5396 91.593 17.327C91.3249 17.1143 91.0336 16.9617 90.7192 16.8693C90.4141 16.7768 90.1182 16.7306 89.8316 16.7306C89.3507 16.7306 88.93 16.8276 88.5694 17.0218C88.2181 17.216 87.9222 17.4703 87.6818 17.7847C87.4414 18.099 87.2611 18.4504 87.1409 18.8387C87.0299 19.2271 86.9744 19.6154 86.9744 20.0038C86.9744 20.5863 87.0946 21.1319 87.335 21.6404C87.5754 22.1397 87.9129 22.5466 88.3475 22.8609C88.7821 23.1753 89.286 23.3325 89.8593 23.3325C90.1552 23.3325 90.4603 23.2816 90.7747 23.1799C91.0983 23.0782 91.3942 22.9164 91.6624 22.6945C91.9305 22.4726 92.1385 22.1859 92.2865 21.8346L93.8538 22.7361C93.6503 23.2262 93.3313 23.6423 92.8968 23.9844C92.4622 24.3172 91.9721 24.5761 91.4266 24.7611C90.881 24.9368 90.3401 25.0246 89.8038 25.0246C89.1011 25.0246 88.4585 24.8813 87.8759 24.5946C87.3027 24.2988 86.8034 23.9104 86.378 23.4296C85.9527 22.9395 85.6198 22.394 85.3794 21.793C85.1483 21.1827 85.0327 20.5678 85.0327 19.9483Z" fill="#0D0B1F"/>
<path d="M97.6787 15.0939H99.6205L103.24 24.9414H101.271L100.356 22.4865H96.9159L96.0144 24.9414H94.0449L97.6787 15.0939ZM100.009 21.1411L98.6496 17.0773L97.2349 21.1411H100.009Z" fill="#0D0B1F"/>
</svg>
