<svg width="20" height="22" viewBox="0 0 20 22" fill="none" xmlns="http://www.w3.org/2000/svg">
<path d="M1.78499 8.83998C1.824 8.33879 2.04467 7.87113 2.40304 7.53015C2.76141 7.18917 3.23119 6.99988 3.71883 6.99998H15.413C15.9007 6.99988 16.3704 7.18917 16.7288 7.53015C17.0872 7.87113 17.3079 8.33879 17.3469 8.83998L18.1256 18.84C18.1471 19.1152 18.113 19.392 18.0256 19.6529C17.9382 19.9139 17.7993 20.1533 17.6177 20.3562C17.4362 20.5591 17.2158 20.7211 16.9706 20.8319C16.7254 20.9427 16.4605 20.9999 16.1928 21H2.93909C2.67134 20.9999 2.40651 20.9427 2.16126 20.8319C1.91602 20.7211 1.69568 20.5591 1.51411 20.3562C1.33255 20.1533 1.19369 19.9139 1.10628 19.6529C1.01886 19.392 0.984797 19.1152 1.00622 18.84L1.78499 8.83998Z" stroke="#0D0B1F" stroke-width="2" stroke-linecap="round" stroke-linejoin="round"/>
<path d="M13.4452 10V5C13.4452 3.93913 13.0365 2.92172 12.309 2.17157C11.5815 1.42143 10.5948 1 9.5659 1C8.53704 1 7.55032 1.42143 6.82281 2.17157C6.0953 2.92172 5.68658 3.93913 5.68658 5V10" stroke="#0D0B1F" stroke-width="2" stroke-linecap="round" stroke-linejoin="round"/>
</svg>
