<svg width="81" height="71" viewBox="0 0 81 71" fill="none" xmlns="http://www.w3.org/2000/svg">
<path fill-rule="evenodd" clip-rule="evenodd" d="M33.3098 5.38605C29.8397 2.82395 25.3731 0.53125 20.5 0.53125C9.456 0.53125 0.5 9.22947 0.5 19.9609C0.5 28.6238 4 49.184 38.452 69.9679C39.0691 70.3364 39.7776 70.5312 40.5 70.5312C41.2224 70.5312 41.9309 70.3364 42.548 69.9679C77 49.184 80.5 28.6238 80.5 19.9609C80.5 9.22947 71.544 0.53125 60.5 0.53125C55.6269 0.53125 51.1603 2.82395 47.6902 5.38605C43.2961 8.63044 40.5 12.3068 40.5 12.3068C40.5 12.3068 37.7039 8.63044 33.3098 5.38605ZM48.4722 18.2586C46.5825 20.7191 43.6322 22.166 40.5 22.166C37.3677 22.166 34.4173 20.719 32.5276 18.2584C32.5248 18.2548 32.5203 18.2492 32.5143 18.2415C32.4878 18.2081 32.4309 18.137 32.3453 18.0336C32.1735 17.8259 31.8905 17.4935 31.5097 17.0783C30.7367 16.2352 29.6233 15.1186 28.2778 14.0243C25.3059 11.6071 22.5563 10.3904 20.5 10.3904C14.8385 10.3904 10.5 14.8119 10.5 19.9609C10.5 22.8561 11.0509 28.3977 15.21 35.478C19.1185 42.1317 26.4852 50.6045 40.5 59.5867C54.5148 50.6045 61.8815 42.1317 65.79 35.478C69.9491 28.3977 70.5 22.8561 70.5 19.9609C70.5 14.8119 66.1615 10.3904 60.5 10.3904C58.4437 10.3904 55.6941 11.6071 52.7222 14.0243C51.3767 15.1186 50.2633 16.2352 49.4903 17.0783C49.1095 17.4935 48.8265 17.8259 48.6547 18.0336C48.5691 18.137 48.5122 18.2081 48.4857 18.2415C48.4795 18.2493 48.475 18.2551 48.4722 18.2586ZM32.5052 18.2292L32.5062 18.2305ZM32.5062 18.2305L32.5052 18.2292L32.5028 18.226M48.4694 18.2623V18.2623Z" fill="#00A052"/>
</svg>
